<svg width="253" height="299" viewBox="0 0 253 299" fill="none" xmlns="http://www.w3.org/2000/svg">
<g opacity="0.33">
<g opacity="0.33">
<path opacity="0.45" d="M179.518 132.304C178.924 125.506 172.932 120.478 166.136 121.073C159.339 121.668 154.311 127.661 154.906 134.459C155.5 141.257 161.491 146.285 168.288 145.69C175.084 145.095 180.112 139.101 179.518 132.304Z" fill="#BACAD9"/>
<path opacity="0.33" fill-rule="evenodd" clip-rule="evenodd" d="M168.287 145.691C175.084 145.095 180.112 139.102 179.518 132.304C178.924 125.506 172.932 120.478 166.135 121.073L168.287 145.691Z" fill="#BACAD9"/>
</g>
<path opacity="0.33" d="M228.561 110.222C231.921 109.629 234.164 106.425 233.572 103.065C232.98 99.7047 229.776 97.4613 226.417 98.0539C223.058 98.6466 220.814 101.851 221.406 105.211C221.999 108.571 225.202 110.815 228.561 110.222Z" fill="#CFDAE6"/>
<path opacity="0.33" d="M166.905 116.235L165.881 39.8349" stroke="#BACAD9" stroke-width="1.16667"/>
<path opacity="0.33" d="M26.0623 85.7188L151.812 128.392" stroke="#BACAD9" stroke-width="1.16667"/>
<path opacity="0.33" d="M173.12 149.007L225.931 259.348L68.214 196.774L153.094 142.357" stroke="#CFDAE6" stroke-width="1.16667"/>
<path opacity="0.6" d="M185.947 124.635L221.121 107.143" stroke="#E0B4B7" stroke-width="1.16667"/>
<path opacity="0.33" d="M230.151 97.9008L256.514 43.8123" stroke="#BACAD9" stroke-width="1.16667"/>
<path opacity="0.33" d="M303.374 138.858L233.5 106.217" stroke="#CFDAE6" stroke-width="1.16667"/>
<path opacity="0.33" d="M167.785 39.3866C172.824 38.4977 176.188 33.6911 175.3 28.651C174.412 23.6108 169.607 20.2456 164.568 21.1346C159.529 22.0235 156.164 26.8301 157.052 31.8702C157.94 36.9104 162.745 40.2756 167.785 39.3866Z" fill="#C1D1E0"/>
<path opacity="0.33" d="M70.0167 203.431C73.0401 202.897 75.059 200.013 74.5261 196.989C73.9931 193.965 71.1101 191.946 68.0867 192.479C65.0633 193.013 63.0443 195.897 63.5773 198.921C64.1103 201.945 66.9933 203.964 70.0167 203.431Z" fill="#C1D1E0"/>
<path opacity="0.33" d="M17.7964 92.1905C22.8354 91.3016 26.2002 86.495 25.312 81.4549C24.4237 76.4147 19.6187 73.0495 14.5797 73.9385C9.54073 74.8274 6.17588 79.634 7.06413 84.6741C7.95238 89.7143 12.7574 93.0795 17.7964 92.1905Z" fill="#D1DEED" fill-opacity="0.6"/>
<path opacity="0.33" d="M227.788 265.94C230.812 265.407 232.831 262.523 232.298 259.499C231.765 256.475 228.882 254.456 225.858 254.989C222.835 255.522 220.816 258.406 221.349 261.431C221.882 264.455 224.765 266.474 227.788 265.94Z" fill="#E0B4B7"/>
</g>
</svg>
