<svg width="250" height="209" viewBox="0 0 250 209" fill="none" xmlns="http://www.w3.org/2000/svg">
<path opacity="0.25" d="M36.7908 80.0886C53.7529 78.6038 66.2999 63.6353 64.8152 46.6555C63.3305 29.6757 48.3764 17.1146 31.4143 18.5994C14.4522 20.0843 1.90524 35.0528 3.38992 52.0326C4.87461 69.0124 19.8287 81.5735 36.7908 80.0886Z" fill="#CFDAE6"/>
<path opacity="0.3" d="M36.094 72.1178C48.6586 71.0179 57.9526 59.9301 56.8528 47.3525C55.7531 34.7749 44.676 25.4704 32.1114 26.5702C19.5469 27.6701 10.2529 38.7579 11.3526 51.3356C12.4524 63.9132 23.5295 73.2177 36.094 72.1178Z" fill="#CFDAE6"/>
<path opacity="0.4" d="M204.461 175.569C218.282 174.359 228.506 162.162 227.296 148.327C226.086 134.491 213.901 124.256 200.08 125.466C186.259 126.676 176.036 138.873 177.246 152.708C178.455 166.543 190.64 176.778 204.461 175.569Z" stroke="#CFDAE6"/>
<path opacity="0.5" d="M35.0983 60.7309C41.3806 60.181 46.0276 54.6371 45.4777 48.3483C44.9278 42.0595 39.3893 37.4072 33.107 37.9572C26.8247 38.5071 22.1777 44.051 22.7276 50.3398C23.2775 56.6286 28.816 61.2809 35.0983 60.7309Z" fill="#BACAD9"/>
<path fill-rule="evenodd" clip-rule="evenodd" d="M35.0986 60.7309L33.1072 37.9569C26.8248 38.5068 22.1777 44.0508 22.7276 50.3397C23.2775 56.6285 28.8162 61.2809 35.0986 60.7309Z" fill="#BACAD9"/>
<g opacity="0.45">
<path opacity="0.45" d="M202.869 157.35C206.638 157.019 209.427 153.693 209.097 149.92C208.767 146.147 205.444 143.356 201.674 143.686C197.905 144.016 195.117 147.342 195.446 151.115C195.776 154.888 199.099 157.68 202.869 157.35Z" fill="#E6A1A6"/>
<path opacity="0.45" fill-rule="evenodd" clip-rule="evenodd" d="M202.869 157.349C199.099 157.68 195.776 154.888 195.446 151.115C195.116 147.342 197.905 144.015 201.674 143.685L202.869 157.349Z" fill="#E6A1A6"/>
</g>
<path d="M243.988 149.161C244.93 149.079 245.627 148.247 245.545 147.304C245.462 146.361 244.631 145.663 243.689 145.745C242.747 145.828 242.05 146.659 242.132 147.603C242.215 148.546 243.046 149.244 243.988 149.161Z" fill="#CFDAE6"/>
<path opacity="0.35" d="M206.425 191.461C207.367 191.379 208.064 190.547 207.982 189.604C207.899 188.661 207.069 187.963 206.126 188.045C205.184 188.128 204.487 188.959 204.569 189.903C204.652 190.846 205.483 191.544 206.425 191.461Z" fill="#E0B4B7"/>
<path opacity="0.35" d="M200.321 115.118C201.577 115.008 202.507 113.899 202.397 112.641C202.287 111.383 201.179 110.453 199.922 110.563C198.666 110.673 197.737 111.782 197.847 113.039C197.957 114.297 199.064 115.228 200.321 115.118Z" fill="#E0B4B7"/>
<path opacity="0.8" d="M34.0532 50.2311L193.485 145.679" stroke="#CFDAE6"/>
</svg>
