<svg width="156" height="106" viewBox="0 0 156 106" fill="none" xmlns="http://www.w3.org/2000/svg">
<g opacity="0.8">
<path opacity="0.25" d="M71.6895 65.9055C84.3326 64.3522 93.3247 52.8493 91.774 40.213C90.2234 27.5767 78.717 18.5921 66.074 20.1453C53.4309 21.6986 44.4387 33.2015 45.9894 45.8378C47.5401 58.4741 59.0464 67.4587 71.6895 65.9055Z" fill="#CFDAE6"/>
<path opacity="0.6" d="M6.63619 36.3843C9.66441 36.0123 11.8182 33.2572 11.4468 30.2306C11.0754 27.204 8.3194 25.052 5.29118 25.424C2.26296 25.7961 0.109196 28.5512 0.480611 31.5778C0.852025 34.6044 3.60797 36.7563 6.63619 36.3843Z" fill="#CFDAE6"/>
<path opacity="0.45" fill-rule="evenodd" clip-rule="evenodd" d="M49.3583 105.055C55.4148 104.31 59.7223 98.8002 58.9795 92.747C58.2366 86.6938 52.7248 82.3899 46.6683 83.1339C40.6119 83.878 36.3043 89.3882 37.0472 95.4414C37.79 101.495 43.3019 105.799 49.3583 105.055Z" fill="#CFDAE6"/>
<path opacity="0.8" d="M69.7103 43.6728L125.271 19.1301" stroke="#CFDAE6" stroke-width="1.73913" stroke-linecap="round" stroke-linejoin="round"/>
<path opacity="0.7" d="M45.5893 39.5169L7.86572 31.4155" stroke="#E0B4B7" stroke-width="0.702679" stroke-linecap="round" stroke-linejoin="round" stroke-dasharray="1.41 2.11"/>
<path opacity="0.8" d="M69.388 44.0872L52.7207 84.3388" stroke="#BACAD9" stroke-width="0.702679" stroke-linecap="round" stroke-linejoin="round" stroke-dasharray="1.41 2.11"/>
<g opacity="0.8">
<path opacity="0.45" d="M128.755 23.6512C133.672 25.7391 139.349 23.4478 141.434 18.5333C143.519 13.6189 141.224 7.94232 136.307 5.85436C131.389 3.76641 125.713 6.05775 123.628 10.9722C121.542 15.8867 123.838 21.5632 128.755 23.6512Z" fill="#CFDAE6"/>
<path opacity="0.8" fill-rule="evenodd" clip-rule="evenodd" d="M123.628 10.9726C121.542 15.887 123.838 21.5634 128.755 23.6513C133.672 25.7392 139.349 23.4479 141.434 18.5336L123.628 10.9726Z" fill="#CFDAE6"/>
</g>
</g>
</svg>
