<svg width="71" height="69" viewBox="0 0 71 69" fill="none" xmlns="http://www.w3.org/2000/svg">
<g opacity="0.8">
<path opacity="0.8" d="M55.1795 37.739C61.6008 36.4902 65.7851 30.221 64.5253 23.7364C63.2654 17.2517 57.0386 13.0073 50.6172 14.2561C44.1958 15.505 40.0115 21.7741 41.2714 28.2588C42.5312 34.7434 48.7581 38.9878 55.1795 37.739Z" stroke="#CFDAE6" stroke-width="0.941176"/>
<g opacity="0.8">
<path opacity="0.45" d="M54.5933 34.8987C59.4582 33.9524 62.6283 29.203 61.674 24.2906C60.7197 19.3782 56.0024 16.1629 51.1376 17.1091C46.2728 18.0554 43.1027 22.8048 44.057 27.7172C45.0112 32.6296 49.7285 35.8449 54.5933 34.8987Z" fill="#BACAD9"/>
<path opacity="0.8" fill-rule="evenodd" clip-rule="evenodd" d="M54.5929 34.8994C59.458 33.9531 62.6283 29.2035 61.674 24.2909C60.7197 19.3783 56.0021 16.163 51.137 17.1092L54.5929 34.8994Z" fill="#BACAD9"/>
</g>
<path opacity="0.8" d="M41.9319 20.3707L7.80176 5.38678" stroke="#CFDAE6" stroke-width="0.941176"/>
<path opacity="0.8" d="M5.61865 7.77281C7.49158 7.40857 8.712 5.58005 8.34455 3.68871C7.97709 1.79736 6.1609 0.559402 4.28797 0.923644C2.41504 1.28788 1.19461 3.1164 1.56207 5.00774C1.92953 6.89909 3.74572 8.13705 5.61865 7.77281Z" stroke="#CFDAE6" stroke-width="0.941176"/>
<path opacity="0.8" d="M16.7327 67.5554C18.338 67.2432 19.3841 65.6759 19.0691 64.0548C18.7542 62.4336 17.1975 61.3725 15.5922 61.6847C13.9869 61.9969 12.9409 63.5642 13.2558 65.1854C13.5708 66.8065 15.1274 67.8676 16.7327 67.5554Z" fill="#F7E1AD"/>
<path opacity="0.8" d="M44.8291 35.4346L18.2367 62.7153" stroke="#CFDAE6" stroke-width="0.941176"/>
</g>
</svg>
